<svg xmlns="http://www.w3.org/2000/svg" version="1.1" xmlns:xlink="http://www.w3.org/1999/xlink" xmlns:svgjs="http://svgjs.dev/svgjs" width="2000" height="2000" viewBox="0 0 2000 2000"><g transform="matrix(1,0,0,1,-0.9999999999998863,-0.9999999999998863)"><svg viewBox="0 0 280 280" data-background-color="#ffffff" preserveAspectRatio="xMidYMid meet" height="2000" width="2000" xmlns="http://www.w3.org/2000/svg" xmlns:xlink="http://www.w3.org/1999/xlink"><g id="tight-bounds" transform="matrix(1,0,0,1,0.13999999999998636,0.13999999999998636)"><svg viewBox="0 0 279.72 279.72" height="279.72" width="279.72"><g><svg viewBox="0 0 279.72 279.72" height="279.72" width="279.72"><g><svg viewBox="0 0 279.72 279.72" height="279.72" width="279.72"><g id="textblocktransform"><svg viewBox="0 0 279.72 279.72" height="279.72" width="279.72" id="textblock"><g><svg viewBox="0 0 279.72 279.72" height="279.72" width="279.72"><g transform="matrix(1,0,0,1,73.92936372216631,79.8346646031244)"><svg viewBox="0 0 131.8612725556674 120.05067079375125" height="120.05067079375125" width="131.8612725556674"><g id="icon-0"><svg xmlns="http://www.w3.org/2000/svg" xmlns:xlink="http://www.w3.org/1999/xlink" version="1.1" x="0" y="0" viewBox="9.269 12.559000000000001 82.25 74.883" enable-background="new 0 0 100 100" xml:space="preserve" height="120.05067079375125" width="131.8612725556674" class="icon-jxe-0" data-fill-palette-color="accent" id="jxe-0"><polygon points="73.728,28.041 53.355,28.041 53.355,45.544 38.466,45.544 38.466,58.702 22.775,58.702 22.775,69.374 9.269,69.374   9.269,87.442 91.519,87.442 91.519,28.041 " fill="#ffffff" data-fill-palette-color="accent"></polygon><circle cx="39.75" cy="17.69" r="5.1" fill="#ffffff" data-fill-palette-color="accent"></circle><path d="M49.858 23.905A3.03 3.03 0 0 0 45.57 23.862L37.65 31.623 36.264 28.782C37.468 27.092 37.481 24.753 36.12 23.052A4.767 4.767 0 0 0 29.421 22.308C29.031 22.62 19.808 30.068 14.81 40.064A4.8 4.8 0 0 0 14.344 41.637C14.337 41.675 14.337 41.712 14.33 41.75 14.323 41.82 14.316 41.891 14.313 41.96 14.299 42.132 14.301 42.305 14.318 42.48 14.344 42.903 14.422 43.32 14.557 43.72L17.566 57.123 10.8 66.825A3.035 3.035 0 0 0 13.285 71.593C14.243 71.593 15.185 71.14 15.775 70.295L23.304 59.496A3.03 3.03 0 0 0 23.776 57.098L21.367 46.363A4.8 4.8 0 0 0 22.652 45.33L27.047 47.714 24.682 55.758A3.033 3.033 0 1 0 30.5 57.471L33.559 47.075A3.034 3.034 0 0 0 32.096 43.554L25.828 40.154C27.732 37.393 29.881 34.988 31.662 33.187L34.041 38.065A3.04 3.04 0 0 0 36.768 39.768C37.555 39.768 38.319 39.461 38.889 38.901L49.813 28.197A3.034 3.034 0 0 0 49.858 23.905" fill="#ffffff" data-fill-palette-color="accent"></path><path d="M80.614 16.03H75.784V15.487C75.784 14.423 74.919 13.557 73.854 13.557H70.42A1.933 1.933 0 0 0 68.489 15.487V16.03H64.26C63.508 16.03 62.899 16.64 62.899 17.392V26.017C62.899 26.769 63.508 27.379 64.26 27.379H80.614C81.366 27.379 81.975 26.769 81.975 26.017V17.392A1.36 1.36 0 0 0 80.614 16.03M69.626 15.487C69.626 15.049 69.982 14.694 70.42 14.694H73.855C74.293 14.694 74.648 15.05 74.648 15.487V16.03H69.627z" fill="#ffffff" data-fill-palette-color="accent"></path></svg></g></svg></g><g id="text-0"><path d="M28.669 107.412v0c-0.804 2.328-1.958 3.908-3.462 4.741-1.498 0.835-3.281 0.896-5.348 0.183v0c-1.476-0.509-2.544-1.167-3.206-1.972-0.67-0.801-1.145-1.488-1.424-2.061v0c-0.246-0.505-0.375-0.894-0.386-1.169-0.012-0.275 0.01-0.491 0.064-0.651v0c0.121-0.35 0.311-0.59 0.569-0.721 0.255-0.14 0.532-0.158 0.831-0.055v0c0.184 0.064 0.338 0.156 0.46 0.276 0.124 0.114 0.226 0.231 0.306 0.351v0c0.532 0.81 1.332 1.399 2.4 1.768v0c1.234 0.426 2.282 0.307 3.144-0.355 0.854-0.659 1.517-1.672 1.989-3.04v0c0.657-1.902 0.605-3.464-0.154-4.687-0.766-1.225-2.022-2.214-3.769-2.967v0c-0.625-0.273-1.35-0.562-2.177-0.869-0.822-0.298-1.609-0.577-2.36-0.836v0c-2.831-0.913-5.254-1.494-7.268-1.741v0c-0.288 0.648-0.578 1.356-0.872 2.123-0.296 0.773-0.563 1.507-0.802 2.2v0c-0.832 2.41-1.309 4.36-1.432 5.848v0c-0.056 0.493-0.135 0.886-0.236 1.178v0c-0.075 0.216-0.172 0.354-0.291 0.412-0.128 0.062-0.367 0.033-0.718-0.087v0c-0.483-0.167-0.923-0.408-1.32-0.723-0.403-0.317-0.733-0.67-0.99-1.057v0c-0.297-0.437-0.463-0.886-0.497-1.346-0.04-0.462 0.017-0.998 0.171-1.607v0c0.231-0.938 0.526-2.029 0.884-3.272 0.349-1.239 0.793-2.637 1.331-4.195v0c0.444-1.285 0.83-2.312 1.159-3.081 0.325-0.777 0.572-1.315 0.739-1.613v0c0.18-0.358 0.39-0.584 0.63-0.68 0.248-0.099 0.585-0.076 1.011 0.072v0c0.375 0.13 0.746 0.325 1.11 0.586 0.359 0.259 0.647 0.547 0.866 0.865v0c3.611 1.19 6.84 2.372 9.687 3.547 2.847 1.175 5.123 2.552 6.828 4.13v0c3.094 2.933 3.939 6.435 2.533 10.505z" fill="#ffffff" data-fill-palette-color="primary"></path><path d="M44.502 76.185v0c-1.137 1.594-2.481 2.561-4.03 2.902-1.549 0.341-3.167-0.091-4.854-1.295v0c-0.783-0.559-1.466-1.212-2.049-1.959-0.583-0.747-1.065-1.537-1.446-2.37v0c-0.03 0.54-0.11 0.901-0.238 1.081v0c-0.199 0.279-0.492 0.36-0.879 0.241-0.386-0.119-0.73-0.286-1.032-0.5v0c-0.531-0.379-0.875-0.79-1.03-1.232-0.156-0.442-0.239-0.824-0.249-1.145v0c-0.068-0.784 0.02-1.87 0.266-3.257 0.244-1.396 0.884-2.82 1.92-4.271v0c1.415-1.982 3.069-3.129 4.961-3.441 1.888-0.306 3.826 0.251 5.814 1.67v0c1.544 1.102 2.716 2.426 3.514 3.972 0.793 1.541 1.15 3.148 1.073 4.82-0.074 1.667-0.654 3.261-1.741 4.784zM41.732 72.596v0c0.825-1.156 1.156-2.39 0.995-3.704-0.152-1.316-0.828-2.401-2.027-3.258v0c-1.249-0.891-2.428-1.121-3.538-0.69-1.106 0.426-2.038 1.17-2.796 2.233v0c-0.348 0.487-0.614 0.959-0.799 1.414-0.188 0.461-0.337 0.912-0.446 1.355v0c0.235 0.655 0.55 1.314 0.945 1.977 0.391 0.668 0.935 1.25 1.63 1.746v0c1.15 0.821 2.269 1.095 3.357 0.821 1.079-0.272 1.972-0.903 2.679-1.894z" fill="#ffffff" data-fill-palette-color="primary"></path><path d="M68.642 51.358v0c-0.828 0.646-1.649 1.052-2.466 1.22-0.822 0.172-1.629 0.209-2.422 0.111v0c0.075 0.556 0.078 1.1 0.007 1.633-0.066 0.538-0.291 0.956-0.673 1.254v0c-0.244 0.19-0.533 0.301-0.868 0.332-0.335 0.031-0.578-0.095-0.73-0.378v0c-1.061-2.048-2.188-4.079-3.383-6.091-1.193-2.022-2.531-3.982-4.013-5.881v0c-1.238-1.586-2.452-3.028-3.644-4.325-1.192-1.298-2.533-2.3-4.022-3.006v0c-0.285-0.136-0.546-0.274-0.783-0.413-0.237-0.139-0.426-0.299-0.567-0.48v0c-0.331-0.424-0.407-1.031-0.228-1.818 0.179-0.788 0.547-1.399 1.103-1.835v0c0.806-0.629 1.74-0.564 2.802 0.195 1.052 0.758 2.328 2.097 3.826 4.017v0c1.275 1.634 2.368 3.183 3.281 4.648 0.912 1.464 1.653 2.747 2.221 3.848v0c-0.405-1.809-0.418-3.587-0.039-5.334 0.374-1.751 1.243-3.159 2.606-4.223v0c1.363-1.064 2.786-1.444 4.269-1.141 1.473 0.302 2.812 1.224 4.016 2.768v0c0.89 1.14 1.579 2.39 2.068 3.75 0.484 1.364 0.743 2.736 0.779 4.115 0.032 1.375-0.205 2.674-0.71 3.896-0.5 1.218-1.31 2.264-2.43 3.138zM66.589 47.135v0c1.273-0.993 1.942-2.164 2.008-3.513 0.06-1.344-0.319-2.542-1.138-3.592v0c-0.712-0.912-1.516-1.424-2.414-1.534-0.892-0.115-1.752 0.151-2.579 0.796v0c-0.828 0.646-1.368 1.473-1.622 2.482-0.254 1.009-0.288 2.098-0.101 3.266 0.188 1.159 0.526 2.304 1.014 3.433v0c0.899 0.092 1.767 0.017 2.602-0.225 0.839-0.237 1.583-0.608 2.23-1.113z" fill="#ffffff" data-fill-palette-color="primary"></path><path d="M122.596 28.538v0c-1.379 0.193-2.681 0.167-3.903-0.076-1.216-0.244-2.229-0.684-3.038-1.318-0.801-0.629-1.271-1.436-1.408-2.422v0c-0.09-0.646-0.017-1.238 0.221-1.774 0.245-0.53 0.634-0.833 1.167-0.907v0c0.333-0.047 0.701 0.031 1.103 0.233v0c0.785 0.515 1.767 0.928 2.945 1.24 1.17 0.305 2.389 0.369 3.655 0.192v0c1.653-0.231 2.959-0.75 3.92-1.556 0.961-0.807 1.363-1.77 1.206-2.89v0c-0.149-1.066-0.747-1.771-1.793-2.113-1.052-0.335-2.478-0.595-4.277-0.779v0c-1.336-0.126-2.633-0.345-3.893-0.658-1.259-0.306-2.335-0.836-3.228-1.587-0.885-0.746-1.428-1.835-1.628-3.268v0c-0.153-1.093-0.068-2.212 0.254-3.358 0.328-1.153 0.893-2.241 1.694-3.263 0.801-1.029 1.822-1.909 3.066-2.64 1.242-0.737 2.69-1.222 4.342-1.452v0c1.239-0.173 2.389-0.188 3.449-0.044 1.065 0.137 1.936 0.412 2.612 0.828 0.67 0.423 1.057 1 1.159 1.733v0c0.078 0.56-0.007 1.071-0.254 1.534-0.248 0.463-0.565 0.843-0.952 1.141-0.393 0.299-0.743 0.471-1.049 0.514v0c-0.28 0.039-0.677-0.034-1.192-0.221v0c-0.845-0.31-1.767-0.517-2.767-0.622-1-0.105-1.866-0.106-2.6-0.004v0c-1.373 0.192-2.447 0.651-3.221 1.378-0.768 0.726-1.096 1.495-0.982 2.307v0c0.125 0.893 0.769 1.567 1.933 2.023 1.164 0.456 3.196 0.824 6.096 1.105v0c1.983 0.239 3.569 0.724 4.758 1.455 1.19 0.737 1.918 2.059 2.185 3.965v0c0.239 1.713 0.007 3.379-0.698 4.999-0.705 1.614-1.814 2.991-3.325 4.133-1.518 1.143-3.37 1.867-5.557 2.172z" fill="#ffffff" data-fill-palette-color="primary"></path><path d="M157.004 28.387v0c-2.132-0.302-3.708-1.147-4.727-2.535-1.019-1.395-1.373-3.185-1.064-5.37v0c0.282-1.992 0.976-3.742 2.08-5.251 1.096-1.503 2.453-2.632 4.068-3.388 1.61-0.764 3.298-1.021 5.063-0.771v0c1.685 0.239 2.975 0.846 3.87 1.823 0.889 0.969 1.236 2.139 1.042 3.511v0c-0.155 1.093-0.635 2.057-1.44 2.895-0.804 0.831-1.808 1.439-3.011 1.826-1.197 0.388-2.481 0.484-3.854 0.29v0c-1.685-0.239-3.007-0.814-3.965-1.724v0c-0.157 1.296 0.136 2.398 0.877 3.304 0.748 0.908 1.795 1.457 3.141 1.648v0c0.813 0.115 1.67 0.087 2.57-0.084 0.895-0.179 1.688-0.478 2.38-0.896v0c0.44-0.277 0.827-0.392 1.16-0.345v0c0.286 0.041 0.507 0.164 0.661 0.369 0.153 0.212 0.21 0.458 0.171 0.738v0c-0.087 0.613-0.735 1.35-1.945 2.211v0c-2.134 1.532-4.493 2.115-7.077 1.749zM159.045 18.585v0c1.006 0.143 1.875 0.052 2.608-0.273 0.74-0.33 1.155-0.815 1.246-1.454v0c0.076-0.54-0.091-0.988-0.503-1.345-0.405-0.356-1-0.59-1.786-0.702v0c-1.039-0.147-1.984-0.003-2.834 0.434-0.85 0.437-1.512 1.124-1.985 2.063v0c0.357 0.309 0.832 0.577 1.426 0.804 0.6 0.228 1.209 0.385 1.828 0.473z" fill="#ffffff" data-fill-palette-color="primary"></path><path d="M187.632 37.268v0c-1.972-0.865-3.261-2.104-3.869-3.715-0.605-1.618-0.465-3.437 0.422-5.458v0c0.808-1.842 1.948-3.341 3.417-4.496 1.461-1.152 3.071-1.874 4.831-2.167 1.756-0.302 3.451-0.095 5.084 0.622v0c1.559 0.684 2.637 1.617 3.236 2.798 0.595 1.172 0.614 2.393 0.057 3.662v0c-0.443 1.01-1.166 1.81-2.167 2.4-0.998 0.583-2.129 0.899-3.391 0.947-1.257 0.051-2.52-0.202-3.789-0.759v0c-1.559-0.684-2.677-1.594-3.355-2.729v0c-0.5 1.206-0.515 2.346-0.045 3.419 0.476 1.076 1.336 1.887 2.58 2.433v0c0.752 0.33 1.584 0.534 2.498 0.612 0.91 0.069 1.755-0.005 2.533-0.222v0c0.499-0.149 0.902-0.155 1.211-0.02v0c0.265 0.116 0.444 0.294 0.537 0.533 0.091 0.246 0.079 0.498-0.034 0.757v0c-0.249 0.567-1.072 1.102-2.469 1.606v0c-2.468 0.901-4.897 0.827-7.287-0.223zM192.239 28.379v0c0.93 0.408 1.792 0.555 2.584 0.439 0.801-0.119 1.332-0.474 1.592-1.065v0c0.219-0.499 0.179-0.976-0.121-1.431-0.294-0.452-0.804-0.838-1.532-1.157v0c-0.961-0.422-1.91-0.537-2.846-0.345-0.936 0.192-1.759 0.676-2.467 1.452v0c0.261 0.394 0.646 0.78 1.156 1.158 0.516 0.381 1.061 0.697 1.634 0.949z" fill="#ffffff" data-fill-palette-color="primary"></path><path d="M210.67 50.664v0c-0.238-0.198-0.407-0.457-0.508-0.777-0.101-0.32-0.029-0.585 0.215-0.794v0c1.777-1.471 3.527-3.008 5.248-4.612 1.731-1.605 3.359-3.323 4.885-5.153v0c1.339-1.608 2.5-3.111 3.48-4.509 0.981-1.398 1.677-2.943 2.087-4.633v0c0.09-0.328 0.174-0.608 0.253-0.84 0.075-0.227 0.177-0.417 0.306-0.572v0c0.345-0.414 0.921-0.616 1.729-0.609 0.808 0.008 1.484 0.238 2.026 0.69v0c0.786 0.655 0.92 1.581 0.404 2.78-0.518 1.189-1.556 2.719-3.115 4.59v0c-1.869 2.243-3.629 4.092-5.278 5.546-1.65 1.445-2.936 2.52-3.856 3.225v0l0.074 0.18c1.326-0.708 2.739-1.274 4.238-1.698 1.504-0.428 2.967-0.602 4.388-0.521 1.431 0.08 2.668 0.555 3.713 1.425v0c1.024 0.853 1.558 1.815 1.603 2.886 0.05 1.075-0.278 2.037-0.985 2.884v0c-0.836 1.003-1.94 1.598-3.313 1.785-1.373 0.187-2.854 0.061-4.441-0.377v0c-0.337 0.972-0.421 1.887-0.252 2.746 0.174 0.863 0.662 1.629 1.463 2.296v0c0.264 0.22 0.501 0.382 0.711 0.487v0c0.335 0.165 0.249 0.553-0.26 1.163v0c-0.289 0.346-0.68 0.685-1.176 1.017-0.491 0.327-1.059 0.488-1.704 0.485-0.645-0.003-1.348-0.322-2.108-0.955v0c-1.024-0.853-1.606-1.846-1.747-2.979-0.147-1.138-0.032-2.295 0.343-3.471 0.375-1.185 0.826-2.294 1.353-3.327v0c0.501-0.949 1.131-1.147 1.888-0.594v0c0.829 0.55 1.659 0.857 2.491 0.92 0.832 0.063 1.502-0.211 2.011-0.821v0c0.577-0.693 0.53-1.319-0.143-1.879v0c-0.434-0.362-1.008-0.572-1.72-0.632-0.707-0.055-1.433-0.025-2.177 0.091-0.744 0.116-1.408 0.281-1.99 0.496v0c-0.799 0.297-1.544 0.618-2.234 0.963-0.695 0.34-1.346 0.722-1.953 1.145v0l-1.085 1.303c-0.672 0.806-1.461 1.275-2.366 1.405-0.9 0.134-1.733-0.117-2.498-0.755z" fill="#ffffff" data-fill-palette-color="primary"></path><path d="M237.551 79.326v0c-1.205-1.784-1.634-3.52-1.288-5.207 0.352-1.691 1.442-3.154 3.271-4.389v0c1.667-1.126 3.431-1.785 5.29-1.977 1.85-0.194 3.597 0.055 5.242 0.747 1.646 0.683 2.968 1.763 3.966 3.24v0c0.953 1.411 1.367 2.775 1.242 4.093-0.123 1.309-0.759 2.351-1.907 3.127v0c-0.914 0.618-1.952 0.908-3.113 0.873-1.155-0.04-2.28-0.376-3.374-1.01-1.09-0.628-2.023-1.516-2.798-2.665v0c-0.953-1.411-1.412-2.777-1.379-4.098v0c-1.067 0.753-1.688 1.708-1.864 2.866-0.172 1.164 0.122 2.309 0.882 3.435v0c0.459 0.68 1.055 1.297 1.786 1.851 0.733 0.544 1.486 0.933 2.26 1.165v0c0.501 0.141 0.846 0.35 1.034 0.629v0c0.162 0.24 0.218 0.486 0.17 0.738-0.054 0.256-0.199 0.463-0.433 0.621v0c-0.513 0.346-1.495 0.36-2.945 0.04v0c-2.567-0.556-4.582-1.915-6.042-4.079zM246.193 74.27v0c0.569 0.842 1.219 1.426 1.95 1.752 0.741 0.328 1.379 0.311 1.914-0.051v0c0.452-0.305 0.672-0.73 0.662-1.275-0.007-0.539-0.233-1.138-0.677-1.796v0c-0.587-0.87-1.328-1.474-2.222-1.812-0.894-0.338-1.848-0.368-2.862-0.089v0c0.01 0.472 0.13 1.004 0.36 1.596 0.233 0.598 0.525 1.156 0.875 1.675z" fill="#ffffff" data-fill-palette-color="primary"></path><path d="M250.388 104.269v0c-0.147-0.433-0.19-0.802-0.13-1.107 0.06-0.305 0.279-0.475 0.658-0.511v0c1.253-0.098 2.509-0.247 3.77-0.447 1.267-0.202 2.452-0.49 3.554-0.864v0c1.421-0.482 2.429-0.923 3.025-1.324 0.598-0.395 0.974-0.785 1.127-1.171 0.156-0.38 0.228-0.805 0.217-1.278v0c0.018-0.219 0.069-0.425 0.153-0.616 0.084-0.192 0.247-0.329 0.49-0.411v0c0.376-0.127 0.843-0.122 1.401 0.015 0.554 0.146 1.091 0.43 1.61 0.85 0.519 0.421 0.898 0.982 1.135 1.683v0c0.309 0.911 0.21 1.655-0.298 2.232-0.508 0.577-1.274 1.04-2.301 1.388v0c1.239 0.113 2.295 0.419 3.168 0.918 0.873 0.5 1.491 1.285 1.854 2.356v0c0.246 0.726 0.289 1.387 0.128 1.981-0.154 0.592-0.595 1.012-1.322 1.258v0c-0.726 0.246-1.485 0.241-2.275-0.017-0.791-0.258-1.268-0.629-1.433-1.113v0c-0.026-0.076-0.041-0.174-0.046-0.293-0.011-0.117 0.023-0.235 0.104-0.355v0c0.31-0.489 0.379-0.988 0.206-1.498v0c-0.266-0.784-1.008-1.296-2.226-1.537-1.22-0.247-2.738-0.091-4.552 0.467v0c-0.667 0.254-1.345 0.506-2.036 0.754-0.697 0.25-1.204 0.43-1.523 0.538v0c-0.994 0.337-1.906 0.341-2.735 0.011-0.832-0.336-1.406-0.973-1.723-1.909z" fill="#ffffff" data-fill-palette-color="primary"></path><path d="M1.837 145.336c0-6.1 4.945-11.046 11.045-11.046 6.1 0 11.046 4.945 11.046 11.046 0 6.1-4.945 11.046-11.046 11.045-6.1 0-11.046-4.945-11.045-11.045z" fill="#ffffff" data-fill-palette-color="primary"></path><path d="M255.921 145.336c0-6.1 4.945-11.046 11.045-11.046 6.1 0 11.046 4.945 11.046 11.046 0 6.1-4.945 11.046-11.046 11.045-6.1 0-11.046-4.945-11.045-11.045z" fill="#ffffff" data-fill-palette-color="primary"></path></g><g id="text-1"><path d="M24.417 188.455v0l-0.956-1.14c0.302-0.206 0.565-0.439 0.787-0.699 0.225-0.253 0.396-0.528 0.515-0.825 0.125-0.3 0.196-0.617 0.212-0.954 0.016-0.336-0.032-0.684-0.144-1.043v0c-0.12-0.386-0.29-0.72-0.512-1.004-0.226-0.275-0.488-0.507-0.787-0.696-0.296-0.183-0.622-0.325-0.977-0.426-0.347-0.097-0.704-0.158-1.072-0.186-0.374-0.025-0.747-0.011-1.118 0.041-0.373 0.045-0.727 0.12-1.061 0.223v0c-0.54 0.167-1.056 0.398-1.55 0.692-0.489 0.286-0.903 0.632-1.242 1.04-0.347 0.403-0.584 0.865-0.712 1.383-0.128 0.519-0.096 1.087 0.095 1.704v0c0.102 0.328 0.255 0.618 0.461 0.872 0.201 0.262 0.435 0.482 0.701 0.659 0.26 0.18 0.55 0.319 0.869 0.417 0.317 0.092 0.644 0.145 0.98 0.161v0l-0.118 1.495c-0.548-0.041-1.058-0.175-1.53-0.402-0.472-0.227-0.894-0.519-1.265-0.876-0.378-0.355-0.701-0.762-0.97-1.221-0.276-0.457-0.491-0.936-0.647-1.437v0c-0.167-0.54-0.261-1.081-0.282-1.624-0.025-0.535 0.021-1.056 0.138-1.565 0.111-0.506 0.285-0.99 0.523-1.451 0.239-0.455 0.532-0.873 0.878-1.255 0.348-0.376 0.752-0.709 1.212-1 0.451-0.295 0.95-0.527 1.496-0.696v0c0.54-0.167 1.082-0.258 1.627-0.272 0.537-0.019 1.058 0.028 1.565 0.138 0.502 0.119 0.98 0.298 1.435 0.538 0.463 0.244 0.883 0.543 1.261 0.898 0.378 0.355 0.711 0.759 0.999 1.212 0.284 0.461 0.51 0.962 0.677 1.501v0c0.163 0.527 0.261 1.057 0.292 1.59 0.033 0.539-0.005 1.062-0.116 1.568-0.119 0.502-0.315 0.982-0.589 1.44-0.269 0.45-0.628 0.85-1.075 1.2z" fill="#ffffff" data-fill-palette-color="secondary"></path><path d="M25.499 201.326v0c-0.445 0.191-0.888 0.31-1.328 0.359-0.44 0.049-0.869 0.039-1.287-0.031-0.415-0.064-0.819-0.187-1.212-0.37-0.393-0.183-0.755-0.413-1.085-0.689-0.33-0.276-0.631-0.594-0.902-0.953-0.271-0.36-0.497-0.75-0.676-1.17v0c-0.18-0.421-0.307-0.853-0.38-1.298-0.07-0.438-0.091-0.872-0.063-1.301 0.029-0.429 0.112-0.849 0.251-1.261 0.139-0.411 0.327-0.791 0.565-1.142 0.24-0.344 0.532-0.663 0.876-0.956 0.339-0.284 0.729-0.52 1.167-0.708v0c0.439-0.188 0.879-0.307 1.319-0.356 0.443-0.043 0.872-0.033 1.287 0.031 0.424 0.067 0.829 0.194 1.216 0.38 0.393 0.183 0.755 0.413 1.085 0.688 0.336 0.273 0.639 0.587 0.908 0.94 0.271 0.36 0.497 0.75 0.676 1.171v0c0.18 0.421 0.307 0.853 0.38 1.297 0.073 0.444 0.092 0.883 0.057 1.315-0.029 0.429-0.112 0.849-0.251 1.26-0.133 0.408-0.322 0.786-0.569 1.133-0.238 0.351-0.526 0.668-0.866 0.952-0.339 0.284-0.729 0.52-1.168 0.709zM24.415 198.793v0c0.235-0.101 0.479-0.223 0.732-0.368 0.249-0.136 0.486-0.292 0.711-0.469 0.227-0.17 0.434-0.362 0.621-0.574 0.187-0.212 0.333-0.435 0.438-0.67 0.104-0.235 0.16-0.489 0.168-0.763 0.01-0.268-0.05-0.553-0.18-0.856v0c-0.122-0.285-0.283-0.516-0.484-0.694-0.207-0.175-0.435-0.308-0.686-0.398-0.248-0.084-0.514-0.131-0.796-0.142-0.283-0.011-0.565 0.004-0.848 0.045-0.283 0.04-0.561 0.101-0.834 0.181-0.273 0.08-0.521 0.168-0.744 0.263v0c-0.229 0.098-0.467 0.218-0.713 0.36-0.24 0.139-0.476 0.299-0.706 0.478-0.225 0.177-0.43 0.371-0.618 0.583-0.187 0.212-0.336 0.437-0.447 0.674-0.108 0.244-0.17 0.501-0.186 0.771-0.01 0.268 0.046 0.544 0.168 0.829v0c0.127 0.297 0.291 0.534 0.491 0.712 0.203 0.184 0.43 0.321 0.681 0.411 0.248 0.084 0.511 0.133 0.787 0.146 0.274 0.007 0.555-0.011 0.844-0.054 0.283-0.04 0.559-0.104 0.83-0.19 0.279-0.083 0.536-0.175 0.771-0.275z" fill="#ffffff" data-fill-palette-color="secondary"></path><path d="M31.978 211.907v0c-0.549 0.3-1.157 0.549-1.824 0.745-0.67 0.191-1.358 0.322-2.063 0.393-0.708 0.081-1.404 0.09-2.09 0.028-0.689-0.053-1.326-0.179-1.911-0.38v0l-0.003-1.161c0.307 0.001 0.636-0.022 0.987-0.068 0.356-0.049 0.721-0.119 1.094-0.208 0.376-0.083 0.758-0.185 1.145-0.305 0.387-0.12 0.766-0.247 1.137-0.381 0.368-0.14 0.72-0.283 1.055-0.428 0.338-0.154 0.645-0.307 0.922-0.459v0c0.183-0.1 0.374-0.213 0.575-0.337 0.197-0.131 0.39-0.275 0.58-0.433 0.181-0.16 0.347-0.332 0.5-0.515 0.156-0.177 0.269-0.37 0.34-0.578 0.08-0.205 0.117-0.417 0.112-0.636-0.008-0.226-0.079-0.459-0.211-0.701v0c-0.129-0.236-0.297-0.417-0.504-0.542-0.206-0.125-0.434-0.211-0.682-0.259-0.249-0.048-0.51-0.062-0.783-0.043-0.279 0.022-0.552 0.064-0.818 0.125-0.262 0.067-0.517 0.149-0.763 0.246-0.24 0.093-0.449 0.188-0.626 0.285v0l-4.081 2.234-1.309-2.39 8.136-4.454 0.504 0.921-1.299 2.126c0.39-0.045 0.766-0.036 1.131 0.025 0.366 0.053 0.709 0.153 1.027 0.301 0.322 0.154 0.615 0.353 0.881 0.599 0.265 0.246 0.495 0.546 0.688 0.901v0c0.31 0.567 0.487 1.107 0.53 1.62 0.046 0.519-0.02 1.008-0.198 1.466-0.173 0.455-0.446 0.873-0.821 1.254-0.374 0.381-0.827 0.717-1.358 1.009z" fill="#ffffff" data-fill-palette-color="secondary"></path><path d="M38.948 222.175v0c-0.517 0.353-1.098 0.66-1.742 0.92-0.649 0.255-1.32 0.453-2.015 0.593-0.696 0.149-1.389 0.227-2.077 0.233-0.69 0.015-1.337-0.049-1.939-0.192v0l-0.117-1.154c0.306-0.029 0.631-0.084 0.975-0.165 0.35-0.084 0.706-0.189 1.069-0.314 0.366-0.12 0.736-0.258 1.11-0.415 0.373-0.157 0.738-0.321 1.095-0.491 0.353-0.176 0.689-0.352 1.007-0.529 0.321-0.186 0.612-0.369 0.873-0.547v0c0.172-0.118 0.352-0.248 0.539-0.392 0.183-0.149 0.361-0.312 0.535-0.488 0.164-0.177 0.313-0.365 0.447-0.562 0.138-0.192 0.232-0.394 0.282-0.607 0.059-0.212 0.076-0.426 0.049-0.645-0.03-0.224-0.123-0.449-0.279-0.677v0c-0.152-0.222-0.336-0.385-0.554-0.489-0.218-0.104-0.453-0.168-0.705-0.191-0.252-0.023-0.513-0.012-0.784 0.033-0.276 0.05-0.543 0.118-0.801 0.205-0.255 0.092-0.5 0.199-0.735 0.319-0.23 0.116-0.429 0.231-0.595 0.345v0l-3.843 2.623-1.537-2.25 7.661-5.229 0.592 0.866-1.084 2.243c0.384-0.083 0.759-0.111 1.127-0.085 0.37 0.016 0.72 0.083 1.052 0.199 0.335 0.121 0.647 0.291 0.935 0.51 0.288 0.219 0.546 0.495 0.773 0.829v0c0.364 0.533 0.593 1.054 0.686 1.56 0.097 0.512 0.079 1.005-0.053 1.478-0.127 0.47-0.359 0.913-0.694 1.329-0.335 0.416-0.753 0.795-1.253 1.137z" fill="#ffffff" data-fill-palette-color="secondary"></path><path d="M41.534 226.744v0c0.155 0.3 0.323 0.59 0.503 0.869 0.18 0.288 0.378 0.561 0.594 0.819v0c0.225 0.268 0.46 0.497 0.706 0.686 0.246 0.189 0.502 0.317 0.769 0.383 0.261 0.071 0.533 0.071 0.816 0 0.288-0.065 0.581-0.223 0.88-0.473v0c0.242-0.203 0.436-0.422 0.582-0.658 0.145-0.236 0.236-0.478 0.272-0.728 0.036-0.25 0.016-0.505-0.061-0.765-0.078-0.251-0.223-0.502-0.435-0.755v0c-0.194-0.232-0.413-0.404-0.656-0.517-0.242-0.122-0.497-0.19-0.763-0.203-0.265-0.024-0.535-0.004-0.808 0.057-0.282 0.061-0.553 0.147-0.811 0.258-0.268 0.11-0.52 0.238-0.757 0.384-0.238 0.156-0.45 0.311-0.636 0.467v0c-0.036 0.03-0.07 0.058-0.101 0.084-0.031 0.026-0.062 0.057-0.094 0.092zM47.238 230.695v0c-0.294 0.246-0.596 0.415-0.905 0.508-0.305 0.097-0.612 0.139-0.921 0.126-0.308-0.023-0.611-0.09-0.906-0.202-0.3-0.117-0.59-0.265-0.871-0.443-0.28-0.178-0.542-0.38-0.784-0.607-0.247-0.232-0.472-0.469-0.675-0.711v0c-0.259-0.31-0.493-0.631-0.703-0.965-0.209-0.334-0.386-0.686-0.529-1.057v0c-0.239 0.27-0.438 0.556-0.599 0.857-0.166 0.305-0.27 0.616-0.312 0.932-0.042 0.316-0.016 0.641 0.078 0.974 0.09 0.328 0.274 0.657 0.551 0.987v0c0.181 0.217 0.388 0.395 0.619 0.535 0.236 0.145 0.48 0.248 0.732 0.309 0.257 0.066 0.522 0.094 0.795 0.084 0.264-0.01 0.528-0.061 0.794-0.151v0l0.419 1.176c-0.432 0.134-0.866 0.181-1.302 0.142-0.436-0.039-0.854-0.14-1.256-0.304-0.405-0.17-0.784-0.392-1.137-0.667-0.353-0.275-0.666-0.575-0.938-0.9v0c-0.458-0.547-0.789-1.125-0.993-1.735-0.199-0.615-0.274-1.223-0.225-1.826 0.049-0.612 0.223-1.201 0.522-1.766 0.299-0.575 0.72-1.09 1.261-1.544v0c0.542-0.454 1.119-0.775 1.734-0.964 0.615-0.199 1.225-0.266 1.83-0.203 0.607 0.054 1.192 0.235 1.758 0.543 0.57 0.304 1.084 0.729 1.542 1.275v0c0.216 0.258 0.423 0.541 0.619 0.85 0.188 0.308 0.351 0.623 0.49 0.946 0.133 0.327 0.235 0.658 0.306 0.995 0.065 0.34 0.077 0.673 0.033 0.999-0.043 0.326-0.148 0.641-0.313 0.946-0.161 0.311-0.399 0.598-0.714 0.861z" fill="#ffffff" data-fill-palette-color="secondary"></path><path d="M55.755 238.165v0l-1.158-0.495c0.279-0.548 0.372-1.091 0.28-1.629-0.087-0.533-0.348-1.015-0.783-1.446v0c-0.239-0.237-0.484-0.41-0.737-0.518-0.262-0.109-0.526-0.167-0.792-0.176-0.266-0.009-0.533 0.026-0.799 0.103-0.271 0.072-0.53 0.175-0.777 0.309-0.256 0.134-0.501 0.29-0.734 0.466-0.233 0.186-0.444 0.375-0.633 0.566v0c-0.209 0.21-0.408 0.434-0.597 0.673-0.19 0.229-0.353 0.47-0.49 0.723-0.142 0.248-0.253 0.503-0.333 0.764-0.07 0.262-0.098 0.524-0.083 0.786 0.01 0.266 0.076 0.53 0.195 0.791 0.12 0.261 0.306 0.518 0.559 0.769v0c0.2 0.199 0.422 0.358 0.666 0.476 0.243 0.118 0.495 0.198 0.757 0.24 0.262 0.042 0.528 0.046 0.799 0.012 0.262-0.034 0.521-0.109 0.777-0.224v0l0.532 1.14c-0.423 0.168-0.846 0.26-1.269 0.275-0.423 0.016-0.837-0.035-1.242-0.152-0.405-0.118-0.791-0.292-1.158-0.525-0.367-0.232-0.703-0.5-1.009-0.803v0c-0.501-0.498-0.881-1.041-1.14-1.63-0.254-0.594-0.385-1.198-0.392-1.812-0.007-0.614 0.113-1.216 0.358-1.806 0.241-0.596 0.61-1.144 1.108-1.645v0c0.503-0.506 1.048-0.884 1.638-1.134 0.589-0.249 1.191-0.373 1.804-0.37 0.609-0.002 1.209 0.124 1.8 0.38 0.596 0.26 1.146 0.641 1.652 1.143v0c0.315 0.313 0.59 0.657 0.824 1.032 0.234 0.375 0.409 0.762 0.525 1.162 0.116 0.409 0.165 0.827 0.147 1.255-0.013 0.433-0.111 0.866-0.295 1.3z" fill="#ffffff" data-fill-palette-color="secondary"></path><path d="M61.195 241.186l-5.284 6.277-2.085-1.755 5.285-6.277-1.297-1.092 0.689-0.818 1.297 1.092 2.204-2.617 2.084 1.755-2.204 2.617 2.147 1.807-0.689 0.818z" fill="#ffffff" data-fill-palette-color="secondary"></path><path d="M69.426 243.446v0c-0.126 0.166-0.276 0.298-0.449 0.394-0.169 0.1-0.347 0.163-0.536 0.19-0.189 0.026-0.378 0.014-0.567-0.037-0.194-0.045-0.371-0.129-0.532-0.25v0c-0.166-0.126-0.295-0.274-0.386-0.444-0.1-0.169-0.163-0.347-0.189-0.536-0.026-0.189-0.014-0.378 0.036-0.567 0.045-0.194 0.131-0.374 0.257-0.54v0c0.122-0.161 0.268-0.287 0.437-0.377 0.169-0.1 0.347-0.163 0.536-0.19 0.189-0.026 0.378-0.014 0.567 0.037 0.188 0.041 0.366 0.125 0.532 0.25v0c0.161 0.122 0.29 0.27 0.386 0.444 0.1 0.169 0.163 0.347 0.189 0.535 0.026 0.189 0.014 0.378-0.036 0.567-0.041 0.188-0.123 0.363-0.245 0.524zM67.972 245.168l-5.595 7.398-2.173-1.644 5.595-7.397z" fill="#ffffff" data-fill-palette-color="secondary"></path><path d="M76.376 255.397v0c-0.339 0.526-0.755 1.034-1.248 1.525-0.498 0.487-1.041 0.93-1.627 1.329-0.584 0.408-1.192 0.748-1.824 1.021-0.63 0.282-1.251 0.474-1.861 0.577v0l-0.556-1.019c0.27-0.146 0.549-0.323 0.835-0.531 0.29-0.213 0.577-0.448 0.863-0.704 0.291-0.253 0.578-0.524 0.861-0.814 0.283-0.29 0.556-0.582 0.819-0.877 0.257-0.299 0.498-0.592 0.723-0.879 0.223-0.296 0.421-0.577 0.592-0.843v0c0.113-0.175 0.228-0.365 0.344-0.57 0.111-0.209 0.212-0.428 0.304-0.657 0.082-0.227 0.147-0.458 0.194-0.692 0.053-0.23 0.06-0.453 0.024-0.669-0.028-0.218-0.096-0.422-0.206-0.613-0.115-0.194-0.288-0.366-0.52-0.516v0c-0.226-0.146-0.46-0.225-0.7-0.236-0.241-0.011-0.482 0.021-0.724 0.098-0.241 0.076-0.478 0.188-0.709 0.335-0.235 0.153-0.454 0.319-0.658 0.5-0.199 0.184-0.384 0.377-0.555 0.579-0.167 0.197-0.305 0.38-0.414 0.55v0l-2.523 3.909-2.289-1.477 5.029-7.794 0.882 0.569-0.128 2.488c0.321-0.225 0.657-0.397 1.005-0.516 0.347-0.128 0.696-0.204 1.047-0.225 0.356-0.018 0.709 0.017 1.06 0.107 0.35 0.09 0.695 0.244 1.034 0.463v0c0.543 0.35 0.955 0.741 1.238 1.171 0.288 0.434 0.463 0.895 0.525 1.384 0.065 0.482 0.024 0.98-0.124 1.494-0.147 0.514-0.385 1.025-0.713 1.534z" fill="#ffffff" data-fill-palette-color="secondary"></path><path d="M89.082 257.504l-3.72 7.257c-0.338 0.659-0.754 1.228-1.249 1.707-0.489 0.483-1.032 0.847-1.627 1.094-0.595 0.247-1.231 0.359-1.909 0.338-0.668-0.025-1.349-0.215-2.043-0.571v0c-0.377-0.193-0.739-0.432-1.085-0.715-0.346-0.283-0.647-0.604-0.902-0.962-0.249-0.355-0.441-0.74-0.576-1.157-0.134-0.417-0.184-0.85-0.149-1.301v0l1.24 0.148c-0.03 0.28-0.022 0.552 0.023 0.817 0.048 0.274 0.133 0.529 0.254 0.765 0.112 0.239 0.265 0.457 0.459 0.655 0.188 0.194 0.407 0.356 0.658 0.485v0c0.479 0.246 0.928 0.351 1.347 0.316 0.422-0.026 0.812-0.147 1.172-0.363 0.351-0.213 0.675-0.497 0.97-0.852 0.286-0.352 0.535-0.735 0.748-1.148v0l0.248-0.485c-0.487 0.242-0.98 0.356-1.479 0.341-0.496-0.02-0.987-0.154-1.472-0.403v0c-0.629-0.322-1.135-0.722-1.518-1.197-0.374-0.479-0.637-0.999-0.788-1.561-0.142-0.564-0.167-1.156-0.077-1.775 0.087-0.613 0.286-1.222 0.596-1.826v0c0.307-0.599 0.685-1.116 1.135-1.551 0.447-0.429 0.94-0.75 1.481-0.964 0.547-0.211 1.122-0.302 1.727-0.272 0.614 0.027 1.235 0.202 1.864 0.524v0c0.323 0.166 0.604 0.37 0.842 0.614 0.238 0.243 0.433 0.513 0.583 0.809 0.15 0.296 0.256 0.615 0.316 0.955 0.06 0.341 0.064 0.687 0.012 1.039v0l1.994-1.235zM84.544 260.361v0c0.11-0.216 0.217-0.445 0.318-0.687 0.099-0.252 0.181-0.508 0.247-0.77 0.072-0.258 0.115-0.519 0.13-0.784 0.018-0.256-0.007-0.503-0.074-0.741-0.058-0.241-0.164-0.462-0.318-0.662-0.154-0.2-0.369-0.371-0.645-0.512v0c-0.269-0.138-0.532-0.208-0.788-0.211-0.247-0.005-0.483 0.036-0.71 0.124-0.23 0.094-0.445 0.226-0.645 0.395-0.203 0.16-0.392 0.344-0.565 0.549-0.168 0.209-0.325 0.427-0.471 0.655-0.138 0.224-0.26 0.441-0.368 0.651v0c-0.107 0.21-0.214 0.439-0.318 0.687-0.099 0.252-0.184 0.507-0.256 0.765-0.066 0.261-0.106 0.524-0.121 0.788-0.021 0.262-0.001 0.51 0.06 0.746 0.058 0.241 0.161 0.461 0.31 0.657 0.154 0.2 0.366 0.369 0.635 0.508v0c0.251 0.129 0.499 0.192 0.743 0.188 0.244-0.004 0.482-0.055 0.715-0.156 0.236-0.091 0.458-0.223 0.668-0.395 0.215-0.169 0.416-0.354 0.601-0.553 0.18-0.203 0.343-0.41 0.489-0.623 0.144-0.221 0.265-0.428 0.363-0.619z" fill="#ffffff" data-fill-palette-color="secondary"></path><path d="M100.074 262.943l-2.714 7.744-2.571-0.901 2.713-7.744-1.6-0.561 0.354-1.009 1.6 0.56 1.131-3.229 2.572 0.902-1.131 3.228 2.647 0.928-0.353 1.01z" fill="#ffffff" data-fill-palette-color="secondary"></path><path d="M113.842 265.749l-2.384 8.964-2.623-0.698 0.285-1.073c-0.424 0.34-0.882 0.556-1.373 0.648-0.489 0.086-0.997 0.059-1.524-0.081v0c-0.683-0.182-1.262-0.464-1.738-0.849-0.467-0.389-0.834-0.842-1.101-1.358-0.258-0.521-0.409-1.094-0.452-1.718-0.045-0.618 0.02-1.255 0.195-1.911v0c0.173-0.65 0.433-1.236 0.781-1.756 0.346-0.514 0.76-0.933 1.242-1.257 0.49-0.322 1.033-0.533 1.63-0.632 0.605-0.104 1.249-0.065 1.933 0.117v0c0.351 0.093 0.669 0.234 0.953 0.421 0.284 0.187 0.532 0.409 0.742 0.667 0.21 0.258 0.38 0.547 0.511 0.867 0.131 0.32 0.208 0.658 0.232 1.012v0l1.686-1.63zM110.013 269.504v0c0.062-0.234 0.117-0.481 0.166-0.739 0.043-0.267 0.069-0.535 0.078-0.805 0.015-0.267 0.002-0.532-0.04-0.794-0.037-0.254-0.113-0.49-0.229-0.708-0.108-0.224-0.258-0.417-0.452-0.58-0.193-0.163-0.44-0.284-0.739-0.363v0c-0.293-0.078-0.564-0.091-0.814-0.039-0.242 0.047-0.465 0.138-0.668 0.271-0.204 0.141-0.387 0.315-0.546 0.523-0.165 0.2-0.31 0.419-0.436 0.657-0.119 0.24-0.227 0.486-0.322 0.74-0.087 0.248-0.161 0.486-0.221 0.714v0c-0.061 0.228-0.116 0.474-0.165 0.739-0.043 0.267-0.072 0.534-0.088 0.802-0.009 0.269 0.008 0.535 0.049 0.796 0.035 0.26 0.108 0.499 0.217 0.716 0.108 0.224 0.255 0.416 0.442 0.577 0.193 0.163 0.436 0.283 0.729 0.361v0c0.273 0.073 0.528 0.081 0.766 0.026 0.237-0.055 0.459-0.156 0.665-0.304 0.211-0.139 0.4-0.315 0.569-0.527 0.175-0.211 0.331-0.434 0.47-0.669 0.132-0.236 0.248-0.474 0.346-0.712 0.093-0.247 0.168-0.474 0.223-0.682z" fill="#ffffff" data-fill-palette-color="secondary"></path><path d="M119.848 265.406l-1.998 10.551-2.668-0.505 2.522-13.318 1.032 0.195z" fill="#ffffff" data-fill-palette-color="secondary"></path><path d="M124.343 272.364v0c0.319 0.11 0.641 0.204 0.963 0.281 0.329 0.084 0.661 0.145 0.995 0.183v0c0.348 0.039 0.676 0.042 0.985 0.009 0.308-0.033 0.582-0.117 0.82-0.253 0.238-0.129 0.435-0.317 0.592-0.563 0.163-0.246 0.266-0.562 0.31-0.951v0c0.035-0.314 0.024-0.607-0.034-0.877-0.058-0.271-0.159-0.509-0.305-0.715-0.146-0.206-0.337-0.376-0.573-0.511-0.229-0.127-0.508-0.209-0.835-0.246v0c-0.301-0.034-0.578-0.007-0.832 0.079-0.259 0.079-0.49 0.206-0.692 0.379-0.208 0.166-0.39 0.366-0.545 0.599-0.162 0.239-0.299 0.488-0.409 0.746-0.118 0.264-0.212 0.531-0.283 0.801-0.065 0.277-0.111 0.536-0.138 0.777v0c-0.005 0.047-0.01 0.09-0.015 0.13-0.005 0.04-0.006 0.084-0.004 0.132zM131.197 271.286v0c-0.043 0.381-0.144 0.712-0.304 0.992-0.153 0.281-0.347 0.523-0.579 0.727-0.239 0.197-0.504 0.356-0.796 0.479-0.298 0.122-0.61 0.216-0.935 0.281-0.326 0.065-0.654 0.099-0.987 0.102-0.339 0.003-0.665-0.014-0.979-0.049v0c-0.401-0.045-0.793-0.116-1.175-0.213-0.382-0.097-0.753-0.23-1.113-0.4v0c0.014 0.36 0.066 0.705 0.158 1.034 0.091 0.335 0.23 0.632 0.418 0.89 0.188 0.258 0.431 0.475 0.729 0.65 0.292 0.175 0.652 0.287 1.08 0.335v0c0.281 0.032 0.553 0.018 0.817-0.04 0.271-0.058 0.518-0.152 0.743-0.282 0.231-0.13 0.442-0.292 0.633-0.488 0.184-0.189 0.34-0.409 0.47-0.658v0l1.115 0.562c-0.22 0.395-0.502 0.729-0.844 1.002-0.342 0.273-0.715 0.488-1.118 0.647-0.41 0.157-0.838 0.258-1.284 0.302-0.445 0.045-0.878 0.043-1.299-0.004v0c-0.709-0.08-1.347-0.27-1.916-0.571-0.568-0.308-1.042-0.696-1.423-1.165-0.387-0.477-0.667-1.023-0.842-1.639-0.18-0.623-0.231-1.285-0.152-1.987v0c0.079-0.702 0.275-1.333 0.589-1.894 0.308-0.568 0.702-1.038 1.184-1.411 0.476-0.38 1.025-0.653 1.646-0.82 0.622-0.174 1.288-0.221 1.996-0.141v0c0.334 0.038 0.679 0.1 1.036 0.187 0.348 0.093 0.684 0.209 1.007 0.347 0.322 0.145 0.625 0.314 0.907 0.509 0.282 0.201 0.52 0.434 0.714 0.699 0.194 0.266 0.336 0.566 0.427 0.901 0.098 0.336 0.124 0.708 0.077 1.116z" fill="#ffffff" data-fill-palette-color="secondary"></path><path d="M143.4 272.483v0c-0.012 0.626-0.098 1.277-0.259 1.953-0.168 0.677-0.396 1.338-0.684 1.986-0.282 0.654-0.62 1.264-1.014 1.828-0.388 0.571-0.814 1.061-1.28 1.47v0l-1.008-0.574c0.153-0.266 0.297-0.563 0.431-0.891 0.134-0.334 0.255-0.685 0.363-1.053 0.115-0.368 0.216-0.75 0.304-1.145 0.088-0.395 0.166-0.788 0.234-1.176 0.061-0.389 0.112-0.765 0.153-1.128 0.034-0.369 0.054-0.712 0.06-1.028v0c0.004-0.209 0.001-0.431-0.008-0.667-0.016-0.236-0.045-0.475-0.087-0.718-0.049-0.236-0.116-0.467-0.199-0.69-0.077-0.224-0.187-0.417-0.332-0.582-0.138-0.171-0.304-0.309-0.497-0.413-0.2-0.105-0.438-0.16-0.714-0.165v0c-0.269-0.005-0.509 0.051-0.719 0.168-0.211 0.117-0.399 0.272-0.564 0.464-0.165 0.192-0.307 0.411-0.427 0.658-0.119 0.253-0.218 0.511-0.297 0.771-0.072 0.261-0.128 0.522-0.166 0.785-0.038 0.255-0.06 0.483-0.064 0.685v0l-0.088 4.652-2.724-0.052 0.175-9.273 1.05 0.02 1.2 2.183c0.155-0.36 0.349-0.683 0.584-0.969 0.228-0.292 0.485-0.539 0.771-0.742 0.293-0.203 0.612-0.359 0.957-0.466 0.345-0.108 0.72-0.158 1.124-0.151v0c0.646 0.012 1.202 0.127 1.669 0.345 0.474 0.218 0.865 0.518 1.174 0.9 0.309 0.376 0.536 0.821 0.681 1.336 0.145 0.514 0.212 1.074 0.201 1.679z" fill="#ffffff" data-fill-palette-color="secondary"></path><path d="M149.52 269.176l0.57 8.185-2.718 0.19-0.57-8.186-1.691 0.118-0.075-1.067 1.692-0.118-0.238-3.413 2.719-0.189 0.237 3.413 2.799-0.195 0.074 1.067z" fill="#ffffff" data-fill-palette-color="secondary"></path><path d="M163.589 267.261l1.506 8.066-2.679 0.5-1.506-8.066-1.666 0.311-0.197-1.051 1.667-0.311-0.628-3.364 2.679-0.5 0.628 3.363 2.758-0.514 0.196 1.051z" fill="#ffffff" data-fill-palette-color="secondary"></path><path d="M178.444 267.186v0c0.126 0.468 0.182 0.923 0.169 1.366-0.013 0.443-0.084 0.866-0.213 1.269-0.122 0.402-0.301 0.785-0.538 1.148-0.237 0.363-0.515 0.689-0.834 0.977-0.32 0.288-0.677 0.541-1.071 0.758-0.394 0.218-0.812 0.386-1.255 0.505v0c-0.442 0.119-0.888 0.183-1.338 0.192-0.444 0.008-0.876-0.033-1.297-0.121-0.421-0.089-0.825-0.231-1.212-0.427-0.387-0.196-0.737-0.436-1.051-0.72-0.307-0.287-0.581-0.621-0.823-1.002-0.234-0.376-0.412-0.795-0.537-1.256v0c-0.124-0.461-0.179-0.913-0.166-1.356 0.02-0.444 0.091-0.867 0.213-1.269 0.127-0.41 0.309-0.794 0.547-1.151 0.237-0.363 0.515-0.689 0.835-0.977 0.318-0.295 0.671-0.55 1.059-0.765 0.394-0.218 0.812-0.386 1.254-0.505v0c0.442-0.119 0.888-0.183 1.338-0.192 0.45-0.01 0.887 0.033 1.31 0.128 0.421 0.089 0.825 0.231 1.212 0.427 0.385 0.189 0.732 0.43 1.041 0.723 0.314 0.285 0.587 0.616 0.821 0.992 0.234 0.376 0.412 0.795 0.536 1.256zM175.783 267.902v0c-0.066-0.247-0.153-0.506-0.261-0.777-0.099-0.266-0.221-0.522-0.363-0.769-0.137-0.249-0.297-0.481-0.48-0.697-0.183-0.215-0.384-0.391-0.602-0.528-0.218-0.137-0.462-0.228-0.732-0.273-0.264-0.048-0.555-0.029-0.873 0.057v0c-0.299 0.08-0.55 0.207-0.755 0.38-0.202 0.18-0.366 0.388-0.491 0.623-0.118 0.234-0.203 0.49-0.253 0.769-0.051 0.278-0.076 0.56-0.075 0.846 0 0.286 0.021 0.569 0.061 0.851 0.041 0.282 0.093 0.539 0.156 0.773v0c0.065 0.24 0.15 0.493 0.256 0.757 0.104 0.258 0.229 0.513 0.373 0.767 0.143 0.247 0.306 0.478 0.49 0.694 0.183 0.215 0.385 0.395 0.604 0.537 0.226 0.141 0.472 0.239 0.737 0.293 0.264 0.048 0.545 0.031 0.844-0.049v0c0.312-0.084 0.57-0.212 0.774-0.386 0.211-0.175 0.378-0.38 0.504-0.616 0.118-0.234 0.204-0.487 0.255-0.758 0.046-0.27 0.068-0.551 0.066-0.844 0-0.286-0.024-0.568-0.071-0.848-0.043-0.288-0.097-0.556-0.164-0.802z" fill="#ffffff" data-fill-palette-color="secondary"></path><path d="M195.663 260.284v0c0.193 0.444 0.315 0.887 0.366 1.326 0.051 0.44 0.043 0.869-0.026 1.287-0.062 0.415-0.183 0.82-0.364 1.214-0.181 0.394-0.409 0.757-0.683 1.088-0.274 0.332-0.591 0.634-0.95 0.907-0.358 0.273-0.748 0.5-1.167 0.682v0c-0.42 0.182-0.852 0.311-1.296 0.385-0.438 0.073-0.872 0.096-1.301 0.07-0.429-0.026-0.85-0.108-1.261-0.246-0.411-0.137-0.793-0.324-1.145-0.559-0.346-0.239-0.666-0.529-0.96-0.871-0.286-0.338-0.524-0.726-0.714-1.165v0c-0.19-0.438-0.311-0.877-0.362-1.317-0.045-0.442-0.037-0.871 0.025-1.287 0.065-0.424 0.19-0.83 0.374-1.218 0.181-0.394 0.409-0.757 0.683-1.088 0.272-0.338 0.584-0.642 0.936-0.912 0.358-0.273 0.748-0.5 1.167-0.682v0c0.42-0.182 0.852-0.311 1.296-0.386 0.444-0.075 0.882-0.096 1.315-0.063 0.429 0.026 0.85 0.108 1.261 0.245 0.409 0.131 0.787 0.319 1.135 0.564 0.352 0.236 0.671 0.523 0.957 0.861 0.286 0.338 0.524 0.726 0.714 1.165zM193.135 261.38v0c-0.102-0.235-0.226-0.478-0.372-0.73-0.137-0.249-0.294-0.485-0.472-0.709-0.171-0.226-0.364-0.433-0.576-0.619-0.213-0.186-0.437-0.331-0.673-0.434-0.235-0.103-0.49-0.158-0.764-0.164-0.268-0.009-0.553 0.053-0.855 0.184v0c-0.284 0.123-0.514 0.285-0.691 0.486-0.174 0.207-0.306 0.437-0.395 0.688-0.083 0.249-0.129 0.514-0.138 0.797-0.009 0.283 0.007 0.565 0.048 0.848 0.042 0.283 0.103 0.56 0.185 0.833 0.082 0.273 0.17 0.52 0.267 0.742v0c0.099 0.228 0.22 0.466 0.364 0.712 0.141 0.24 0.301 0.474 0.481 0.704 0.178 0.224 0.373 0.429 0.586 0.615 0.213 0.186 0.438 0.334 0.676 0.444 0.244 0.107 0.502 0.168 0.772 0.182 0.268 0.009 0.544-0.049 0.828-0.171v0c0.296-0.128 0.533-0.293 0.709-0.495 0.183-0.204 0.319-0.432 0.408-0.683 0.083-0.249 0.13-0.511 0.143-0.788 0.006-0.274-0.013-0.555-0.058-0.844-0.042-0.283-0.107-0.559-0.194-0.828-0.084-0.279-0.177-0.536-0.279-0.77z" fill="#ffffff" data-fill-palette-color="secondary"></path><path d="M206.858 254.128v0c0.33 0.594 0.549 1.196 0.657 1.806 0.105 0.619 0.096 1.213-0.027 1.781-0.126 0.563-0.371 1.091-0.735 1.586-0.367 0.489-0.86 0.905-1.477 1.248v0c-0.471 0.261-0.956 0.412-1.458 0.452-0.499 0.031-0.995-0.067-1.49-0.292v0l2.617 4.711-2.373 1.319-6.583-11.849 0.918-0.509 2.025 1.172c-0.058-0.353-0.065-0.699-0.022-1.038 0.048-0.342 0.143-0.664 0.283-0.966 0.141-0.301 0.329-0.579 0.565-0.833 0.23-0.251 0.501-0.463 0.812-0.636v0c0.618-0.343 1.233-0.539 1.845-0.586 0.609-0.054 1.187 0.018 1.735 0.213 0.548 0.196 1.055 0.499 1.522 0.91 0.464 0.42 0.859 0.923 1.186 1.512zM204.449 255.467v0c-0.114-0.206-0.247-0.417-0.398-0.634-0.148-0.225-0.313-0.438-0.493-0.638-0.18-0.2-0.372-0.378-0.574-0.535-0.212-0.159-0.434-0.282-0.667-0.369-0.229-0.08-0.47-0.112-0.722-0.095-0.25 0.008-0.507 0.085-0.772 0.233v0c-0.271 0.15-0.48 0.328-0.627 0.533-0.148 0.205-0.246 0.429-0.296 0.672-0.053 0.237-0.069 0.485-0.049 0.743 0.029 0.261 0.081 0.521 0.156 0.78 0.074 0.259 0.165 0.512 0.272 0.76 0.11 0.239 0.224 0.465 0.341 0.677v0c0.105 0.188 0.235 0.389 0.392 0.602 0.148 0.21 0.318 0.412 0.51 0.606 0.186 0.197 0.39 0.376 0.611 0.538 0.221 0.162 0.448 0.286 0.68 0.372 0.236 0.092 0.476 0.136 0.72 0.132 0.25-0.008 0.495-0.079 0.736-0.213v0c0.265-0.147 0.471-0.323 0.619-0.529 0.142-0.202 0.238-0.424 0.287-0.667 0.053-0.237 0.068-0.488 0.044-0.752-0.029-0.261-0.081-0.521-0.156-0.779-0.074-0.259-0.168-0.511-0.281-0.756-0.107-0.248-0.218-0.475-0.333-0.681z" fill="#ffffff" data-fill-palette-color="secondary"></path><path d="M217.389 246.846v0c0.388 0.558 0.666 1.135 0.835 1.731 0.167 0.605 0.218 1.197 0.152 1.775-0.069 0.573-0.26 1.123-0.572 1.651-0.316 0.523-0.765 0.987-1.345 1.39v0c-0.442 0.307-0.91 0.506-1.405 0.596-0.493 0.081-0.997 0.034-1.511-0.141v0l3.077 4.425-2.229 1.55-7.739-11.128 0.862-0.599 2.132 0.963c-0.093-0.345-0.135-0.689-0.126-1.031 0.014-0.346 0.075-0.675 0.185-0.989 0.11-0.314 0.269-0.609 0.478-0.885 0.204-0.273 0.452-0.511 0.744-0.715v0c0.58-0.403 1.172-0.66 1.777-0.769 0.601-0.114 1.183-0.102 1.748 0.039 0.565 0.14 1.1 0.391 1.605 0.752 0.504 0.371 0.948 0.832 1.332 1.385zM215.127 248.419v0c-0.134-0.193-0.288-0.39-0.46-0.59-0.17-0.209-0.355-0.405-0.554-0.585-0.2-0.181-0.408-0.339-0.626-0.475-0.227-0.137-0.46-0.237-0.7-0.3-0.236-0.057-0.479-0.064-0.728-0.022-0.248 0.033-0.496 0.136-0.745 0.309v0c-0.254 0.177-0.444 0.375-0.57 0.593-0.126 0.219-0.202 0.452-0.227 0.699-0.029 0.241-0.02 0.489 0.026 0.744 0.055 0.256 0.133 0.51 0.233 0.76 0.1 0.25 0.216 0.493 0.347 0.729 0.133 0.227 0.269 0.44 0.408 0.639v0c0.123 0.177 0.273 0.363 0.45 0.56 0.168 0.195 0.357 0.378 0.568 0.551 0.205 0.177 0.426 0.335 0.662 0.474 0.236 0.139 0.474 0.24 0.714 0.303 0.244 0.068 0.487 0.087 0.729 0.058 0.248-0.033 0.485-0.128 0.711-0.285v0c0.249-0.173 0.436-0.369 0.563-0.588 0.121-0.215 0.194-0.446 0.219-0.693 0.029-0.241 0.018-0.492-0.032-0.753-0.055-0.256-0.133-0.51-0.233-0.76-0.1-0.25-0.219-0.491-0.356-0.723-0.132-0.236-0.265-0.451-0.399-0.645z" fill="#ffffff" data-fill-palette-color="secondary"></path><path d="M227.065 238.57v0c0.316 0.367 0.564 0.753 0.743 1.158 0.18 0.405 0.299 0.817 0.359 1.236 0.064 0.415 0.068 0.838 0.012 1.268-0.056 0.43-0.166 0.844-0.33 1.242-0.163 0.398-0.376 0.78-0.637 1.147-0.261 0.367-0.565 0.699-0.912 0.998v0c-0.347 0.298-0.721 0.549-1.123 0.753-0.397 0.199-0.804 0.35-1.222 0.452-0.418 0.102-0.844 0.149-1.277 0.141-0.434-0.009-0.853-0.074-1.259-0.195-0.401-0.126-0.793-0.308-1.176-0.546-0.373-0.238-0.716-0.538-1.027-0.9v0c-0.312-0.362-0.557-0.746-0.737-1.151-0.174-0.409-0.294-0.821-0.358-1.236-0.064-0.425-0.065-0.849-0.005-1.274 0.056-0.43 0.166-0.844 0.33-1.242 0.159-0.403 0.367-0.786 0.623-1.149 0.261-0.367 0.565-0.699 0.912-0.998v0c0.347-0.298 0.721-0.549 1.123-0.753 0.402-0.204 0.814-0.354 1.236-0.451 0.418-0.102 0.844-0.149 1.277-0.14 0.429 0.004 0.846 0.071 1.252 0.201 0.406 0.121 0.796 0.301 1.169 0.539 0.373 0.238 0.716 0.538 1.027 0.9zM224.977 240.367v0c-0.167-0.194-0.357-0.389-0.572-0.587-0.205-0.197-0.425-0.375-0.661-0.536-0.231-0.165-0.476-0.305-0.734-0.42-0.259-0.115-0.516-0.187-0.771-0.216-0.255-0.029-0.515-0.005-0.778 0.071-0.258 0.071-0.512 0.214-0.763 0.429v0c-0.235 0.202-0.406 0.425-0.515 0.67-0.105 0.25-0.162 0.508-0.173 0.774-0.005 0.262 0.029 0.529 0.105 0.803 0.075 0.273 0.174 0.538 0.298 0.795 0.124 0.257 0.265 0.504 0.424 0.74 0.159 0.236 0.317 0.446 0.475 0.63v0c0.162 0.189 0.348 0.379 0.558 0.571 0.205 0.187 0.428 0.364 0.669 0.53 0.236 0.161 0.483 0.299 0.742 0.414 0.259 0.115 0.518 0.189 0.777 0.223 0.265 0.029 0.529 0.011 0.792-0.056 0.258-0.071 0.505-0.208 0.739-0.409v0c0.245-0.211 0.422-0.438 0.531-0.683 0.114-0.249 0.176-0.507 0.187-0.773 0.005-0.262-0.027-0.527-0.098-0.795-0.076-0.263-0.178-0.526-0.306-0.789-0.124-0.257-0.268-0.502-0.432-0.733-0.163-0.241-0.328-0.459-0.494-0.653z" fill="#ffffff" data-fill-palette-color="secondary"></path><path d="M231.887 228.205v0l0.758 2.858c-0.201-0.102-0.434-0.21-0.698-0.325-0.264-0.115-0.531-0.201-0.803-0.259-0.272-0.048-0.539-0.053-0.8-0.016-0.256 0.042-0.478 0.16-0.665 0.353v0c-0.178 0.184-0.284 0.385-0.319 0.605-0.039 0.224-0.029 0.455 0.032 0.691 0.056 0.232 0.15 0.469 0.283 0.71 0.128 0.245 0.271 0.474 0.431 0.685 0.156 0.216 0.316 0.419 0.481 0.607 0.165 0.178 0.31 0.328 0.435 0.45v0l3.341 3.238-1.897 1.957-6.66-6.456 0.731-0.754 2.316 0.714c-0.148-0.35-0.258-0.695-0.33-1.037-0.081-0.341-0.108-0.676-0.08-1.005 0.019-0.329 0.099-0.649 0.242-0.96 0.133-0.311 0.34-0.612 0.622-0.902v0c0.145-0.15 0.319-0.305 0.52-0.465 0.207-0.155 0.426-0.295 0.658-0.417 0.227-0.118 0.461-0.205 0.702-0.261 0.242-0.056 0.475-0.06 0.7-0.011z" fill="#ffffff" data-fill-palette-color="secondary"></path><path d="M235.602 224.098l6.318 5.236-1.739 2.098-6.318-5.235-1.082 1.305-0.824-0.682 1.082-1.306-2.634-2.183 1.738-2.098 2.635 2.183 1.79-2.161 0.824 0.683z" fill="#ffffff" data-fill-palette-color="secondary"></path><path d="M241.739 223.185v0c-0.346-0.245-0.684-0.53-1.015-0.855-0.325-0.321-0.636-0.668-0.932-1.042-0.296-0.374-0.569-0.769-0.818-1.185-0.25-0.416-0.47-0.839-0.659-1.27v0l1.142-1.615c0.246 0.339 0.519 0.676 0.818 1.011 0.295 0.34 0.599 0.667 0.913 0.981 0.318 0.308 0.636 0.598 0.953 0.872 0.317 0.274 0.621 0.514 0.913 0.72v0c0.17 0.12 0.36 0.242 0.569 0.365 0.2 0.125 0.412 0.238 0.638 0.34 0.223 0.092 0.451 0.167 0.682 0.224 0.226 0.053 0.449 0.07 0.668 0.052 0.215-0.013 0.422-0.072 0.621-0.179 0.199-0.106 0.378-0.272 0.538-0.497v0c0.152-0.214 0.24-0.444 0.265-0.69 0.022-0.24-0.001-0.483-0.066-0.727-0.066-0.245-0.168-0.485-0.305-0.723-0.143-0.241-0.302-0.465-0.477-0.671-0.177-0.216-0.357-0.409-0.541-0.581-0.189-0.175-0.369-0.323-0.539-0.443v0l-3.79-2.682 1.568-2.216 7.571 5.357-0.6 0.849-2.48-0.234c0.198 0.338 0.353 0.683 0.467 1.035 0.108 0.348 0.165 0.698 0.172 1.049 0.007 0.351-0.042 0.7-0.147 1.046-0.114 0.348-0.286 0.684-0.515 1.008v0c-0.373 0.527-0.783 0.926-1.229 1.195-0.446 0.269-0.912 0.426-1.396 0.471-0.479 0.048-0.972-0.012-1.479-0.181-0.512-0.173-1.016-0.434-1.51-0.784z" fill="#ffffff" data-fill-palette-color="secondary"></path><path d="M252.558 203.504v0c0.544 0.31 1.074 0.697 1.592 1.162 0.514 0.471 0.986 0.988 1.416 1.55 0.44 0.56 0.813 1.148 1.121 1.765 0.316 0.614 0.543 1.223 0.679 1.826v0l-0.987 0.611c-0.161-0.262-0.353-0.53-0.576-0.804-0.229-0.278-0.479-0.552-0.751-0.822-0.268-0.277-0.555-0.548-0.86-0.815-0.305-0.267-0.612-0.523-0.921-0.769-0.312-0.24-0.618-0.464-0.918-0.673-0.308-0.207-0.6-0.388-0.874-0.545v0c-0.181-0.103-0.378-0.207-0.589-0.312-0.215-0.099-0.439-0.188-0.673-0.267-0.231-0.07-0.465-0.122-0.701-0.155-0.233-0.04-0.456-0.035-0.67 0.013-0.216 0.04-0.416 0.119-0.6 0.239-0.188 0.125-0.35 0.308-0.486 0.548v0c-0.133 0.234-0.199 0.471-0.197 0.712 0.002 0.241 0.048 0.48 0.138 0.717 0.09 0.237 0.214 0.467 0.374 0.69 0.166 0.226 0.344 0.436 0.535 0.63 0.195 0.188 0.398 0.362 0.609 0.521 0.206 0.156 0.396 0.284 0.572 0.383v0l4.043 2.303-1.349 2.368-8.06-4.59 0.52-0.912 2.491-0.01c-0.242-0.308-0.433-0.634-0.571-0.976-0.147-0.339-0.242-0.684-0.283-1.032-0.038-0.355-0.022-0.709 0.048-1.064 0.07-0.355 0.206-0.708 0.406-1.059v0c0.32-0.561 0.687-0.995 1.1-1.301 0.418-0.312 0.868-0.512 1.353-0.6 0.478-0.092 0.978-0.078 1.498 0.04 0.521 0.119 1.045 0.328 1.571 0.628z" fill="#ffffff" data-fill-palette-color="secondary"></path><path d="M249.44 195.593v0c0.188 0.09 0.347 0.21 0.476 0.361 0.132 0.145 0.23 0.307 0.294 0.487 0.064 0.179 0.09 0.367 0.078 0.563-0.005 0.199-0.052 0.389-0.139 0.571v0c-0.09 0.188-0.209 0.344-0.357 0.467-0.145 0.132-0.307 0.23-0.486 0.294-0.179 0.064-0.367 0.09-0.563 0.078-0.199-0.005-0.392-0.053-0.581-0.143v0c-0.182-0.087-0.335-0.204-0.458-0.353-0.132-0.145-0.23-0.307-0.293-0.486-0.064-0.179-0.09-0.367-0.078-0.563 0.002-0.193 0.049-0.383 0.138-0.572v0c0.087-0.182 0.206-0.338 0.357-0.467 0.145-0.132 0.307-0.23 0.487-0.293 0.179-0.064 0.367-0.09 0.563-0.078 0.193 0.002 0.38 0.047 0.562 0.134zM251.419 196.671l8.371 3.995-1.173 2.459-8.371-3.994z" fill="#ffffff" data-fill-palette-color="secondary"></path><path d="M254.943 190.902l7.621 3.041-1.01 2.531-7.621-3.041-0.629 1.574-0.993-0.396 0.628-1.575-3.178-1.268 1.01-2.531 3.178 1.268 1.04-2.606 0.993 0.397z" fill="#ffffff" data-fill-palette-color="secondary"></path><path d="M257.557 179.771l0.558-1.792 6.784 5.643c0.779 0.644 1.534 1.33 2.266 2.058 0.727 0.72 1.41 1.468 2.05 2.245v0l-0.922 0.823c-0.191-0.2-0.411-0.434-0.659-0.702-0.248-0.267-0.506-0.535-0.776-0.802-0.269-0.267-0.538-0.523-0.807-0.769-0.271-0.239-0.526-0.439-0.765-0.598v0l-9.985 1.141 0.807-2.592 6.803-0.768z" fill="#ffffff" data-fill-palette-color="secondary"></path></g></svg></g></svg></g></svg></g></svg></g><defs></defs></svg><rect width="279.72" height="279.72" fill="none" stroke="none" visibility="hidden"></rect></g></svg></g></svg>